<?xml version="1.0" encoding="utf-8"?>
<!-- Generator: Adobe Illustrator 19.0.1, SVG Export Plug-In . SVG Version: 6.00 Build 0)  -->
<!DOCTYPE svg PUBLIC "-//W3C//DTD SVG 1.1//EN" "http://www.w3.org/Graphics/SVG/1.1/DTD/svg11.dtd">
<svg version="1.1" id="Layer_1" xmlns="http://www.w3.org/2000/svg" xmlns:xlink="http://www.w3.org/1999/xlink" x="0px" y="0px"
	 width="170px" height="170px" viewBox="0 0 170 170" enable-background="new 0 0 170 170" xml:space="preserve">
<g>
	<path fill-rule="evenodd" clip-rule="evenodd" fill="#E30520" d="M34.4,130.1C17,142.8,5.1,161.3,9.7,164l-4.2-1.9
		C3.1,159,8.5,143.6,34.4,130.1L34.4,130.1z"/>
	<path fill-rule="evenodd" clip-rule="evenodd" fill="#E30520" d="M163.9,115.4c8.9-18.9-63.6-15.8-117.2,8.9
		C88.3,108.1,165,101.6,163.9,115.4L163.9,115.4z"/>
	<path fill-rule="evenodd" clip-rule="evenodd" fill="#E30520" d="M85.2,70c-11.2-22.4-15-49.7-11.6-60.5c0.8-1.5,1.9-3.5,2.7-3.9
		c1.9,1.2,4.6,3.9,5.4,9.6c1.9-10.4-3.1-10-4.6-10h-3.1c-1.9,0-3.5,1.2-4.2,4.2c-3.5,12.7-0.4,38.5,9.6,60.9c0,0,1.2-0.4,2.7-0.8
		C84.1,69.6,85.2,70,85.2,70L85.2,70z"/>
	<path fill-rule="evenodd" clip-rule="evenodd" fill="#E30520" d="M87.9,85.4c3.5,4.6,7.3,9.2,11.6,12.7
		c22.7,19.7,62.1,28.5,64,18.9c-8.5,4.2-39.3-5.8-60.1-22.4c-4.2-3.9-8.5-8.5-11.9-13.9c0,0,0,1.9-0.4,2.7c0,0.8,0,1.5,0,1.5
		L87.9,85.4L87.9,85.4z"/>
	<path fill-rule="evenodd" clip-rule="evenodd" fill="#E30520" d="M73.7,73.8c7.7-22.7,7.3-38.2,7.7-55.5
		c-1.9,8.1-2.7,25.1-12.3,51.3c0,0,1.5,0.4,2.7,1.5C72.9,71.9,73.7,73.8,73.7,73.8L73.7,73.8z"/>
	<path fill-rule="evenodd" clip-rule="evenodd" fill="#E30520" d="M64.8,95.4L58.3,95c-0.4,1.2-1.2,2.3-1.5,3.5
		c-23.1,46.6-40.1,68.2-51.3,63.6l4.2,1.9c8.9,4.6,24.7-10,51.7-61.7C62.5,99.6,64.8,95.4,64.8,95.4L64.8,95.4z"/>
	<path fill-rule="evenodd" clip-rule="evenodd" fill="#E30520" d="M161.6,121.2c1.9,0,3.5,1.5,3.5,3.5c0,1.9-1.5,3.5-3.5,3.5
		c-1.9,0-3.5-1.5-3.5-3.5C158.1,122.8,159.6,121.2,161.6,121.2L161.6,121.2L161.6,121.2L161.6,121.2z M161.6,121.6
		c-1.5,0-2.7,1.5-2.7,3.1c0,1.5,1.2,2.7,2.7,2.7c1.5,0.4,3.1-1.2,3.1-2.7C164.6,123.1,163.1,121.6,161.6,121.6L161.6,121.6
		L161.6,121.6L161.6,121.6z M161.2,126.6h-0.8v-3.9c0.4,0,0.8,0,1.2,0c0.4,0,0.8,0,1.2,0.4c0.4,0,0.4,0.4,0.4,0.8
		c0,0.4-0.4,0.8-0.8,0.8l0,0c0.4,0,0.8,0.4,0.8,1.2c0,0.4,0,0.8,0,0.8h-0.8c0,0,0-0.4,0-0.8c0-0.8-0.4-0.8-0.8-0.8h-0.4V126.6
		L161.2,126.6L161.2,126.6z M161.2,124.3h0.4c0.4,0,0.8,0,0.8-0.4c0-0.4,0-0.8-0.8-0.8c-0.4,0-0.4,0-0.4,0V124.3L161.2,124.3z"/>
	<path fill-rule="evenodd" clip-rule="evenodd" fill="#FFFFFF" d="M107.2,66.9c0.4,0,1.2-0.4,1.9-0.4c3.5,0,4.6,2.7,4.6,5.8
		c0,3.5-1.9,5.8-5,5.8c-0.8,0-1.2,0-1.5,0V66.9L107.2,66.9L107.2,66.9z M103,93.5h4.2V81.5c0.4,0,1.2,0,1.5,0c2.7,0,5.4-1.2,7.3-3.1
		c1.2-1.9,1.9-3.9,1.9-6.6c0-2.7-0.8-5-2.3-6.6c-1.5-1.5-4.2-2.3-7.3-2.3c-1.9,0-3.9,0.4-5,0.8L103,93.5L103,93.5z"/>
	<path fill-rule="evenodd" clip-rule="evenodd" fill="#1D1D1B" d="M93.7,71.5c1.9,0,3.5,1.5,3.5,3.5c0,1.9-1.5,3.5-3.5,3.5
		c-1.9,0-3.5-1.5-3.5-3.5C90.3,73,91.8,71.5,93.7,71.5L93.7,71.5L93.7,71.5L93.7,71.5z M93.7,71.9C92.2,71.9,91,73,91,75
		c0,1.5,1.2,2.7,2.7,2.7c1.5,0,3.1-1.2,3.1-2.7C96.8,73,95.3,71.9,93.7,71.9L93.7,71.9L93.7,71.9L93.7,71.9z M93.3,76.9h-0.8V73
		c0.4,0,0.8-0.4,1.2-0.4c0.8,0,1.2,0.4,1.2,0.4c0.4,0.4,0.4,0.4,0.4,0.8c0,0.8-0.4,0.8-0.8,1.2l0,0c0.4,0,0.8,0.4,0.8,0.8
		c0,0.8,0,0.8,0,1.2h-0.4c-0.4-0.4-0.4-0.4-0.4-1.2c0-0.4-0.4-0.4-0.8-0.4h-0.4V76.9L93.3,76.9L93.3,76.9z M93.3,74.6h0.4
		c0.4,0,0.8,0,0.8-0.4c0-0.4,0-0.8-0.8-0.8c-0.4,0-0.4,0-0.4,0V74.6L93.3,74.6z"/>
	<path fill-rule="evenodd" clip-rule="evenodd" fill="#1D1D1B" d="M12,81.9l1.2-7.3c0.4-1.9,1.2-4.6,1.2-6.9h0.4
		c0.4,2.3,0.8,5,1.2,6.9l1.2,7.3H12L12,81.9L12,81.9z M17.8,85l1.5,8.5h4.2L17,63.4h-4.6L5.5,93.5h4.2l1.5-8.5H17.8L17.8,85z"/>
	<path fill-rule="evenodd" clip-rule="evenodd" fill="#1D1D1B" d="M35.5,85.8c0,0.4-0.4,1.2-0.4,1.5c-0.8,2.3-1.9,3.1-2.7,3.1
		c-2.3,0-3.5-3.1-3.5-7.7c0-3.9,0.8-7.7,3.5-7.7c1.5,0,2.7,1.5,2.7,3.9c0.4,0.4,0.4,0.8,0.4,1.2V85.8L35.5,85.8L35.5,85.8z
		 M35.5,62.6v11.2h-0.4c-0.8-1.5-1.9-2.3-3.9-2.3c-3.5,0-6.6,3.5-6.6,11.2c0,6.6,2.3,11.2,6.6,11.2c1.9,0,3.9-1.5,4.6-3.1l0,0
		l0.4,2.7h3.5c0-1.5,0-3.9,0-5.8V62.6H35.5L35.5,62.6z"/>
	<path fill-rule="evenodd" clip-rule="evenodd" fill="#1D1D1B" d="M49,90.4c-2.7,0-3.5-4.2-3.5-7.7c0-3.5,0.8-8.1,3.5-8.1
		c2.7,0,3.1,4.6,3.1,8.1C52.1,85.8,51.7,90.4,49,90.4L49,90.4L49,90.4L49,90.4z M49,93.9c3.1,0,7.3-2.7,7.3-11.2
		c0-7.3-3.1-11.2-7.3-11.2c-3.9,0-7.7,3.1-7.7,11.2C41.3,90,44.8,93.9,49,93.9L49,93.9L49,93.9z"/>
	<path fill-rule="evenodd" clip-rule="evenodd" fill="#1D1D1B" d="M62.9,79.6c0-0.4,0.4-0.8,0.4-1.5c0.4-1.5,1.2-3.1,2.7-3.1
		c2.7,0,3.5,3.5,3.5,7.7c0,4.2-0.8,7.7-3.5,7.7c-0.8,0-1.9-0.8-2.7-3.5c0,0-0.4-0.8-0.4-1.2V79.6L62.9,79.6L62.9,79.6z M59,87.7
		c0,1.9-0.4,4.2-0.4,5.8h3.5l0.4-2.7l0,0c1.2,1.9,2.3,3.1,4.6,3.1c3.5,0,6.6-3.9,6.6-11.6c0-6.6-2.3-10.8-6.2-10.8
		c-1.9,0-3.1,0.8-4.2,2.7h-0.4V62.6H59V87.7L59,87.7z"/>
	<path fill-rule="evenodd" clip-rule="evenodd" fill="#1D1D1B" d="M79.5,80.4c0-2.7,1.2-5.8,3.1-5.8c1.9,0,3.1,1.9,3.1,5.8H79.5
		L79.5,80.4L79.5,80.4z M89.5,83.4c0-0.4,0-1.2,0-2.3c0-5.4-1.9-9.6-6.6-9.6c-4.6,0-7.7,4.2-7.7,11.2c0,6.9,2.7,11.2,8.1,11.2
		c1.9-0.4,4.2-0.4,5.4-1.2l-0.8-3.1c-0.8,0.4-2.3,0.8-3.5,0.8c-2.7,0-5-1.5-5-6.9H89.5L89.5,83.4z"/>
	<path fill-rule="evenodd" clip-rule="evenodd" fill="#1D1D1B" d="M107.2,66.9c0.4,0,1.2-0.4,1.9-0.4c3.5,0,4.6,2.7,4.6,5.8
		c0,3.5-1.9,5.8-5,5.8c-0.8,0-1.2,0-1.5,0V66.9L107.2,66.9L107.2,66.9z M103,93.5h4.2V81.5c0.4,0,1.2,0,1.5,0c2.7,0,5.4-1.2,7.3-3.1
		c1.2-1.5,1.9-3.9,1.9-6.6c0-2.7-0.8-5-2.3-6.6c-1.5-1.5-4.2-2.3-7.3-2.3c-1.9,0-3.9,0.4-5,0.8L103,93.5L103,93.5z"/>
	<path fill-rule="evenodd" clip-rule="evenodd" fill="#1D1D1B" d="M124.2,66.9c0.4-0.4,1.2-0.4,1.5-0.4c4.2,0,6.6,4.2,6.6,11.2
		c0,9.6-3.5,12.3-6.9,12.3c-0.4,0-0.8,0-1.2,0V66.9L124.2,66.9L124.2,66.9z M119.9,93.5c1.2,0,2.7,0,4.2,0c3.9,0,6.6-0.8,8.5-3.1
		c2.3-1.9,3.9-6.2,3.9-12.7c0-6.2-1.5-10-3.9-11.9c-1.9-1.9-4.2-2.7-7.7-2.7c-1.9,0-3.5,0.4-5,0.8V93.5L119.9,93.5z"/>
	<polygon fill-rule="evenodd" clip-rule="evenodd" fill="#1D1D1B" points="138.8,63.4 150.8,63.4 150.8,66.9 143.1,66.9 143.1,76.5 
		150.4,76.5 150.4,80.4 143.1,80.4 143.1,93.5 138.8,93.5 138.8,63.4 	"/>
</g>
</svg>
